<mxfile host="app.diagrams.net" modified="2023-04-03T09:10:45.991Z" agent="Mozilla/5.0 (Windows NT 10.0; Win64; x64) AppleWebKit/537.36 (KHTML, like Gecko) Chrome/109.0.0.0 Safari/537.36" etag="SWuM0tnmbo-RFhOi5noc" version="21.1.3" type="github">
  <diagram id="R2lEEEUBdFMjLlhIrx00" name="Page-1">
    <mxGraphModel dx="2284" dy="796" grid="1" gridSize="10" guides="1" tooltips="1" connect="1" arrows="1" fold="1" page="1" pageScale="1" pageWidth="850" pageHeight="1100" math="0" shadow="0" extFonts="Permanent Marker^https://fonts.googleapis.com/css?family=Permanent+Marker">
      <root>
        <mxCell id="0" />
        <mxCell id="1" parent="0" />
        <mxCell id="UxHUwJU7dLEqnlywwQGD-1" value="教材需求表" style="whiteSpace=wrap;html=1;aspect=fixed;" parent="1" vertex="1">
          <mxGeometry x="180" y="120" width="70" height="70" as="geometry" />
        </mxCell>
        <mxCell id="UxHUwJU7dLEqnlywwQGD-2" value="订单表" style="whiteSpace=wrap;html=1;aspect=fixed;" parent="1" vertex="1">
          <mxGeometry x="720" y="120" width="70" height="70" as="geometry" />
        </mxCell>
        <mxCell id="UxHUwJU7dLEqnlywwQGD-4" value="领用表" style="whiteSpace=wrap;html=1;aspect=fixed;" parent="1" vertex="1">
          <mxGeometry x="-40" y="320" width="70" height="70" as="geometry" />
        </mxCell>
        <mxCell id="UxHUwJU7dLEqnlywwQGD-5" value="规则表" style="whiteSpace=wrap;html=1;aspect=fixed;" parent="1" vertex="1">
          <mxGeometry x="940" y="860" width="70" height="70" as="geometry" />
        </mxCell>
        <mxCell id="UxHUwJU7dLEqnlywwQGD-6" value="教材类型表" style="whiteSpace=wrap;html=1;aspect=fixed;" parent="1" vertex="1">
          <mxGeometry x="1075" y="930" width="70" height="70" as="geometry" />
        </mxCell>
        <mxCell id="UxHUwJU7dLEqnlywwQGD-7" value="出版社表" style="whiteSpace=wrap;html=1;aspect=fixed;" parent="1" vertex="1">
          <mxGeometry x="1075" y="1040" width="70" height="70" as="geometry" />
        </mxCell>
        <mxCell id="UxHUwJU7dLEqnlywwQGD-8" value="ISBN" style="ellipse;whiteSpace=wrap;html=1;" parent="1" vertex="1">
          <mxGeometry x="1025" width="50" height="30" as="geometry" />
        </mxCell>
        <mxCell id="UxHUwJU7dLEqnlywwQGD-10" value="教师" style="whiteSpace=wrap;html=1;aspect=fixed;" parent="1" vertex="1">
          <mxGeometry x="-40" y="120" width="70" height="70" as="geometry" />
        </mxCell>
        <mxCell id="UxHUwJU7dLEqnlywwQGD-11" value="申请" style="rhombus;whiteSpace=wrap;html=1;" parent="1" vertex="1">
          <mxGeometry x="70" y="140" width="60" height="30" as="geometry" />
        </mxCell>
        <mxCell id="UxHUwJU7dLEqnlywwQGD-13" value="" style="endArrow=none;html=1;rounded=0;entryX=0;entryY=0.5;entryDx=0;entryDy=0;exitX=1;exitY=0.5;exitDx=0;exitDy=0;" parent="1" source="UxHUwJU7dLEqnlywwQGD-10" target="UxHUwJU7dLEqnlywwQGD-11" edge="1">
          <mxGeometry width="50" height="50" relative="1" as="geometry">
            <mxPoint x="40" y="155" as="sourcePoint" />
            <mxPoint x="360" y="140" as="targetPoint" />
          </mxGeometry>
        </mxCell>
        <mxCell id="UxHUwJU7dLEqnlywwQGD-16" value="" style="endArrow=none;html=1;rounded=0;entryX=0;entryY=0.5;entryDx=0;entryDy=0;" parent="1" target="UxHUwJU7dLEqnlywwQGD-1" edge="1">
          <mxGeometry width="50" height="50" relative="1" as="geometry">
            <mxPoint x="130" y="155" as="sourcePoint" />
            <mxPoint x="180" y="105" as="targetPoint" />
          </mxGeometry>
        </mxCell>
        <mxCell id="UxHUwJU7dLEqnlywwQGD-17" value="采购人员" style="whiteSpace=wrap;html=1;aspect=fixed;" parent="1" vertex="1">
          <mxGeometry x="440" y="120" width="70" height="70" as="geometry" />
        </mxCell>
        <mxCell id="UxHUwJU7dLEqnlywwQGD-18" value="审核" style="rhombus;whiteSpace=wrap;html=1;" parent="1" vertex="1">
          <mxGeometry x="320" y="140" width="60" height="30" as="geometry" />
        </mxCell>
        <mxCell id="UxHUwJU7dLEqnlywwQGD-19" value="" style="endArrow=none;html=1;rounded=0;entryX=0;entryY=0.5;entryDx=0;entryDy=0;exitX=1;exitY=0.5;exitDx=0;exitDy=0;" parent="1" source="UxHUwJU7dLEqnlywwQGD-18" target="UxHUwJU7dLEqnlywwQGD-17" edge="1">
          <mxGeometry width="50" height="50" relative="1" as="geometry">
            <mxPoint x="360" y="355" as="sourcePoint" />
            <mxPoint x="470" y="355" as="targetPoint" />
          </mxGeometry>
        </mxCell>
        <mxCell id="UxHUwJU7dLEqnlywwQGD-20" value="" style="endArrow=none;html=1;rounded=0;entryX=0;entryY=0.5;entryDx=0;entryDy=0;exitX=1;exitY=0.5;exitDx=0;exitDy=0;" parent="1" target="UxHUwJU7dLEqnlywwQGD-18" edge="1">
          <mxGeometry width="50" height="50" relative="1" as="geometry">
            <mxPoint x="250" y="154.5" as="sourcePoint" />
            <mxPoint x="310" y="154.5" as="targetPoint" />
          </mxGeometry>
        </mxCell>
        <mxCell id="UxHUwJU7dLEqnlywwQGD-22" value="" style="rhombus;whiteSpace=wrap;html=1;" parent="1" vertex="1">
          <mxGeometry x="855" y="870" width="60" height="30" as="geometry" />
        </mxCell>
        <mxCell id="UxHUwJU7dLEqnlywwQGD-25" value="" style="endArrow=none;html=1;rounded=0;exitX=1;exitY=0.5;exitDx=0;exitDy=0;" parent="1" source="UxHUwJU7dLEqnlywwQGD-17" edge="1">
          <mxGeometry width="50" height="50" relative="1" as="geometry">
            <mxPoint x="540" y="155" as="sourcePoint" />
            <mxPoint x="590" y="155" as="targetPoint" />
          </mxGeometry>
        </mxCell>
        <mxCell id="UxHUwJU7dLEqnlywwQGD-26" value="" style="rhombus;whiteSpace=wrap;html=1;" parent="1" vertex="1">
          <mxGeometry x="760" y="930" width="60" height="30" as="geometry" />
        </mxCell>
        <mxCell id="UxHUwJU7dLEqnlywwQGD-27" value="采购" style="rhombus;whiteSpace=wrap;html=1;" parent="1" vertex="1">
          <mxGeometry x="590" y="140" width="60" height="30" as="geometry" />
        </mxCell>
        <mxCell id="UxHUwJU7dLEqnlywwQGD-28" value="" style="endArrow=none;html=1;rounded=0;exitX=1;exitY=0.5;exitDx=0;exitDy=0;" parent="1" edge="1">
          <mxGeometry width="50" height="50" relative="1" as="geometry">
            <mxPoint x="650" y="154.5" as="sourcePoint" />
            <mxPoint x="720" y="155" as="targetPoint" />
          </mxGeometry>
        </mxCell>
        <mxCell id="wl2RrobMqF0VMB_f8yhi-1" value="&lt;font style=&quot;font-size: 18px;&quot;&gt;教材发放&lt;/font&gt;" style="text;html=1;strokeColor=none;fillColor=none;align=center;verticalAlign=middle;whiteSpace=wrap;rounded=0;" vertex="1" parent="1">
          <mxGeometry x="-190" y="330" width="90" height="30" as="geometry" />
        </mxCell>
        <mxCell id="wl2RrobMqF0VMB_f8yhi-3" value="管理" style="rhombus;whiteSpace=wrap;html=1;" vertex="1" parent="1">
          <mxGeometry x="70" y="535" width="60" height="30" as="geometry" />
        </mxCell>
        <mxCell id="wl2RrobMqF0VMB_f8yhi-4" value="参照" style="rhombus;whiteSpace=wrap;html=1;" vertex="1" parent="1">
          <mxGeometry x="70" y="340" width="60" height="30" as="geometry" />
        </mxCell>
        <mxCell id="wl2RrobMqF0VMB_f8yhi-5" value="" style="endArrow=none;html=1;rounded=0;exitX=1;exitY=0.5;exitDx=0;exitDy=0;entryX=0;entryY=0.5;entryDx=0;entryDy=0;" edge="1" parent="1" source="UxHUwJU7dLEqnlywwQGD-4" target="wl2RrobMqF0VMB_f8yhi-4">
          <mxGeometry width="50" height="50" relative="1" as="geometry">
            <mxPoint x="150" y="430" as="sourcePoint" />
            <mxPoint x="200" y="380" as="targetPoint" />
          </mxGeometry>
        </mxCell>
        <mxCell id="wl2RrobMqF0VMB_f8yhi-6" value="管理员" style="whiteSpace=wrap;html=1;aspect=fixed;" vertex="1" parent="1">
          <mxGeometry x="180" y="320" width="70" height="70" as="geometry" />
        </mxCell>
        <mxCell id="wl2RrobMqF0VMB_f8yhi-7" value="" style="endArrow=none;html=1;rounded=0;exitX=1;exitY=0.5;exitDx=0;exitDy=0;entryX=0;entryY=0.5;entryDx=0;entryDy=0;" edge="1" parent="1" source="wl2RrobMqF0VMB_f8yhi-4" target="wl2RrobMqF0VMB_f8yhi-6">
          <mxGeometry width="50" height="50" relative="1" as="geometry">
            <mxPoint x="260" y="500" as="sourcePoint" />
            <mxPoint x="310" y="450" as="targetPoint" />
          </mxGeometry>
        </mxCell>
        <mxCell id="wl2RrobMqF0VMB_f8yhi-8" value="发放" style="rhombus;whiteSpace=wrap;html=1;" vertex="1" parent="1">
          <mxGeometry x="330" y="340" width="60" height="30" as="geometry" />
        </mxCell>
        <mxCell id="wl2RrobMqF0VMB_f8yhi-10" value="" style="endArrow=none;html=1;rounded=0;exitX=1;exitY=0.5;exitDx=0;exitDy=0;entryX=0;entryY=0.5;entryDx=0;entryDy=0;" edge="1" parent="1" source="wl2RrobMqF0VMB_f8yhi-6" target="wl2RrobMqF0VMB_f8yhi-8">
          <mxGeometry width="50" height="50" relative="1" as="geometry">
            <mxPoint x="260" y="500" as="sourcePoint" />
            <mxPoint x="310" y="450" as="targetPoint" />
          </mxGeometry>
        </mxCell>
        <mxCell id="wl2RrobMqF0VMB_f8yhi-11" value="学生、教师" style="whiteSpace=wrap;html=1;aspect=fixed;" vertex="1" parent="1">
          <mxGeometry x="450" y="320" width="70" height="70" as="geometry" />
        </mxCell>
        <mxCell id="wl2RrobMqF0VMB_f8yhi-12" value="" style="endArrow=none;html=1;rounded=0;exitX=1;exitY=0.5;exitDx=0;exitDy=0;entryX=0;entryY=0.5;entryDx=0;entryDy=0;" edge="1" parent="1" source="wl2RrobMqF0VMB_f8yhi-8" target="wl2RrobMqF0VMB_f8yhi-11">
          <mxGeometry width="50" height="50" relative="1" as="geometry">
            <mxPoint x="260" y="400" as="sourcePoint" />
            <mxPoint x="310" y="350" as="targetPoint" />
          </mxGeometry>
        </mxCell>
        <mxCell id="wl2RrobMqF0VMB_f8yhi-13" value="&lt;span style=&quot;font-size: 18px;&quot;&gt;教材订购&lt;/span&gt;" style="text;html=1;strokeColor=none;fillColor=none;align=center;verticalAlign=middle;whiteSpace=wrap;rounded=0;" vertex="1" parent="1">
          <mxGeometry x="-190" y="140" width="90" height="30" as="geometry" />
        </mxCell>
        <mxCell id="wl2RrobMqF0VMB_f8yhi-14" value="&lt;span style=&quot;font-size: 18px;&quot;&gt;教材管理&lt;/span&gt;" style="text;html=1;strokeColor=none;fillColor=none;align=center;verticalAlign=middle;whiteSpace=wrap;rounded=0;" vertex="1" parent="1">
          <mxGeometry x="-190" y="550" width="90" height="30" as="geometry" />
        </mxCell>
        <mxCell id="wl2RrobMqF0VMB_f8yhi-15" value="管理员" style="whiteSpace=wrap;html=1;aspect=fixed;" vertex="1" parent="1">
          <mxGeometry x="180" y="515" width="70" height="70" as="geometry" />
        </mxCell>
        <mxCell id="wl2RrobMqF0VMB_f8yhi-16" value="书库表" style="whiteSpace=wrap;html=1;aspect=fixed;" vertex="1" parent="1">
          <mxGeometry x="-40" y="515" width="70" height="70" as="geometry" />
        </mxCell>
        <mxCell id="wl2RrobMqF0VMB_f8yhi-20" value="" style="endArrow=none;html=1;rounded=0;exitX=1;exitY=0.5;exitDx=0;exitDy=0;entryX=0;entryY=0.5;entryDx=0;entryDy=0;" edge="1" parent="1" source="wl2RrobMqF0VMB_f8yhi-16" target="wl2RrobMqF0VMB_f8yhi-3">
          <mxGeometry width="50" height="50" relative="1" as="geometry">
            <mxPoint x="450" y="850" as="sourcePoint" />
            <mxPoint x="500" y="800" as="targetPoint" />
          </mxGeometry>
        </mxCell>
        <mxCell id="wl2RrobMqF0VMB_f8yhi-21" value="" style="endArrow=none;html=1;rounded=0;exitX=1;exitY=0.5;exitDx=0;exitDy=0;entryX=0;entryY=0.5;entryDx=0;entryDy=0;" edge="1" parent="1" source="wl2RrobMqF0VMB_f8yhi-3" target="wl2RrobMqF0VMB_f8yhi-15">
          <mxGeometry width="50" height="50" relative="1" as="geometry">
            <mxPoint x="460" y="860" as="sourcePoint" />
            <mxPoint x="510" y="810" as="targetPoint" />
          </mxGeometry>
        </mxCell>
        <mxCell id="wl2RrobMqF0VMB_f8yhi-22" value="" style="endArrow=none;html=1;rounded=0;" edge="1" parent="1">
          <mxGeometry width="50" height="50" relative="1" as="geometry">
            <mxPoint x="470" y="870" as="sourcePoint" />
            <mxPoint x="520" y="820" as="targetPoint" />
          </mxGeometry>
        </mxCell>
        <mxCell id="wl2RrobMqF0VMB_f8yhi-23" value="" style="endArrow=none;html=1;rounded=0;" edge="1" parent="1">
          <mxGeometry width="50" height="50" relative="1" as="geometry">
            <mxPoint x="480" y="880" as="sourcePoint" />
            <mxPoint x="530" y="830" as="targetPoint" />
          </mxGeometry>
        </mxCell>
        <mxCell id="wl2RrobMqF0VMB_f8yhi-24" value="" style="endArrow=none;html=1;rounded=0;" edge="1" parent="1">
          <mxGeometry width="50" height="50" relative="1" as="geometry">
            <mxPoint x="490" y="890" as="sourcePoint" />
            <mxPoint x="540" y="840" as="targetPoint" />
          </mxGeometry>
        </mxCell>
      </root>
    </mxGraphModel>
  </diagram>
</mxfile>
